<svg id="f2456a0d-5629-424d-81f1-cb25f2706be0" data-name="Layer 1" xmlns="http://www.w3.org/2000/svg" width="100" height="100" viewBox="100 100 758.80551 848"><title>unicorn</title><path d="M969.03475,565.24795q-1.145-5.91318-2.35844-11.66686a.01116.01116,0,0,1-.0114-.01139c-10.23129-48.54736-24.01732-88.356-40.34409-120.82721L883.06,417.86269l32.608-4.65991c-13.18218-22.36528-27.70879-40.6859-43.14687-55.55431L793.06339,366.729l59.975-25.70355C742.81842,258.11556,598.31568,324.7101,558.94,345.63981c-5.40048,2.85974-8.81851,4.87638-9.91227,5.5258-.0114,0-.0114,0-.02279.0114-.23926.14811-.3532.21647-.3532.21647l22.35389,11.6099h.01139L968.00934,569.21286Z" transform="translate(-220.59724 -26)" fill="#2A2E44"/><path d="M969.03475,565.24795q.769-3.05913,1.46975-6.12966c-1.16213-1.69762-2.43819-3.55474-3.82819-5.5372a.01116.01116,0,0,1-.0114-.01139c-45.77875-65.45519-213.581-279.33245-406.87037-206.73359h-.0114q-5.3663,2.01664-10.75538,4.3295c-.0114,0-.0114,0-.02279.0114q-4.90486,2.10208-9.82113,4.46622c-1.66344.78614-3.31548,1.60647-4.97892,2.43819-1.447.72918-2.88254,1.46975-4.3295,2.23311,0,0-8.226,2.06221-17.44333,9.83252-18.10414,15.29-40.04786,52.649-10.97186,139.877,0,0,25.81749,72.26846,12.90875,105.83347-12.90875,33.54222,67.13,72.25706,90.33841,0,23.23118-72.27985,30.9901-141.97339,30.9901-141.97339s26.70618,56.27209,24.0743,112.7037c-1.08238,23.12864.97983,46.28006,7.212,68.5542.638,2.33565,1.333,4.6713,2.028,7.04113,8.397,28.19871,21.49938,64.47536,40.79983,99.55569a335.91344,335.91344,0,0,0,31.37748,47.56753,339.57858,339.57858,0,0,0,45.07236-18.30923A345.97431,345.97431,0,0,0,968.00934,569.21286Z" transform="translate(-220.59724 -26)" fill="#2A2E44"/><polygon points="317.011 360.127 306.686 274.949 350.566 336.896 317.011 360.127" fill="#2A2E44"/><polygon points="294.512 366.263 284.187 281.085 328.067 343.032 294.512 366.263" fill="#2A2E44"/><polygon points="272.037 445.634 161.79 302.333 273.446 402.595 272.037 445.634" fill="#2A2E44"/><circle cx="513.84701" cy="71.0468" r="17.09013" fill="#f2f2f2"/></svg>